<svg aria-hidden="true" style="position: absolute; width: 0; height: 0; overflow: hidden;" version="1.1" xmlns="http://www.w3.org/2000/svg" xmlns:xlink="http://www.w3.org/1999/xlink">
<defs>
<symbol id="icon-logo" viewBox="0 0 143 32">
<path fill="#ff868e" style="fill: var(--color1, #ff868e)" d="M10.453 16.611c0-3.4 2.756-6.156 6.156-6.156 0 0 0.001 0 0.001 0h9.233c3.4 0 6.156 2.756 6.156 6.156s-2.756 6.156-6.156 6.156h-9.233c-3.4 0-6.156-2.756-6.156-6.156v0z"></path>
<path fill="#ff868e" style="fill: var(--color1, #ff868e)" d="M16.611 32c-3.4 0-6.156-2.756-6.156-6.156v0-9.233c0-3.4 2.756-6.156 6.156-6.156s6.156 2.756 6.156 6.156v9.233c0 3.4-2.756 6.156-6.156 6.156v0zM15.391 3.848c0 0.021 0.001 0.046 0.001 0.072 0 2.125-1.723 3.848-3.848 3.848s-3.848-1.723-3.848-3.848c0-0.025 0-0.050 0.001-0.075l-0 0.004c0.057-2.081 1.757-3.747 3.847-3.747s3.79 1.666 3.847 3.741l0 0.005zM7.695 22.316c0 0.021 0.001 0.046 0.001 0.072 0 2.125-1.723 3.848-3.848 3.848s-3.848-1.723-3.848-3.848c0-0.025 0-0.050 0.001-0.075l-0 0.004c0.040-2.094 1.747-3.776 3.847-3.776s3.807 1.682 3.847 3.773l0 0.004zM26.163 3.848c0 0.021 0.001 0.046 0.001 0.072 0 2.125-1.723 3.848-3.848 3.848s-3.848-1.723-3.848-3.848c0-0.025 0-0.050 0.001-0.075l-0 0.004c0.057-2.081 1.757-3.747 3.847-3.747s3.79 1.666 3.847 3.741l0 0.005zM7.695 11.543c0 0.021 0.001 0.046 0.001 0.072 0 2.125-1.723 3.848-3.848 3.848s-3.848-1.723-3.848-3.848c0-0.025 0-0.050 0.001-0.075l-0 0.004c0.040-2.094 1.747-3.776 3.847-3.776s3.807 1.682 3.847 3.773l0 0.004z"></path>
<path fill="#1d1d1d" style="fill: var(--color2, #1d1d1d)" d="M42.527 25.067v-16.487h7.731c1.297 0 2.355 0.248 3.173 0.743 0.813 0.475 1.455 1.166 1.857 1.995l0.012 0.028c0.409 0.853 0.615 1.827 0.615 2.919 0 1.109-0.24 2.091-0.717 2.944-0.463 0.851-1.145 1.533-1.97 1.983l-0.026 0.013c-0.853 0.461-1.869 0.692-3.047 0.692h-4.173v5.171h-3.455zM45.981 17.156h3.457c0.989 0 1.732-0.256 2.227-0.768 0.512-0.529 0.768-1.237 0.768-2.124 0-0.956-0.24-1.681-0.717-2.176-0.477-0.512-1.195-0.768-2.149-0.768h-3.584v5.836zM64.149 25.323c-2.1 0-3.764-0.52-4.992-1.561-1.229-1.059-1.844-2.653-1.844-4.787 0-1.929 0.513-3.457 1.537-4.583 1.040-1.144 2.585-1.716 4.633-1.716 1.877 0 3.311 0.495 4.3 1.485 1.007 0.973 1.511 2.253 1.511 3.84v2.201h-8.78c0.187 0.973 0.631 1.639 1.331 1.997 0.717 0.357 1.724 0.537 3.021 0.537 0.648 0 1.305-0.060 1.971-0.18 0.683-0.12 1.263-0.272 1.741-0.46v2.457c-0.572 0.257-1.236 0.454-1.93 0.558l-0.042 0.005c-0.751 0.137-1.569 0.205-2.457 0.205zM60.513 18.077h5.76v-0.665c0-0.7-0.204-1.245-0.613-1.639-0.409-0.409-1.101-0.613-2.073-0.613-1.144 0-1.947 0.229-2.407 0.691-0.444 0.461-0.667 1.203-0.667 2.227zM76.513 25.323c-1.4 0-2.44-0.367-3.123-1.101-0.667-0.733-0.999-1.732-0.999-2.995v-5.632h-1.715v-2.663h1.715v-2.611l3.456-1.024v3.635h3.072l-0.204 2.663h-2.867v5.401c0 0.667 0.152 1.127 0.46 1.383 0.307 0.24 0.785 0.359 1.433 0.359 0.477 0 0.973-0.085 1.485-0.256v2.38c-0.355 0.148-0.769 0.264-1.199 0.33l-0.030 0.004c-0.426 0.082-0.916 0.128-1.417 0.128-0.024 0-0.048-0-0.072-0l0.004 0zM85.276 25.323c-0.904 0-1.767-0.068-2.585-0.205-0.819-0.12-1.476-0.272-1.971-0.46v-2.867c0.597 0.239 1.271 0.427 2.021 0.563 0.752 0.12 1.443 0.179 2.075 0.179 0.853 0 1.451-0.051 1.792-0.153 0.357-0.103 0.537-0.333 0.537-0.691 0-0.411-0.273-0.709-0.82-0.896-0.528-0.188-1.323-0.453-2.38-0.795-1.109-0.375-1.963-0.827-2.56-1.356s-0.896-1.315-0.896-2.356c0-1.16 0.417-2.048 1.253-2.661 0.853-0.632 2.22-0.947 4.097-0.947 0.751 0 1.459 0.059 2.124 0.179 0.667 0.101 1.229 0.229 1.689 0.384v2.84c-0.46-0.22-0.993-0.389-1.552-0.481l-0.035-0.005c-0.498-0.109-1.072-0.173-1.66-0.179l-0.004-0c-0.733 0-1.323 0.051-1.767 0.153-0.427 0.103-0.64 0.324-0.64 0.665 0 0.376 0.231 0.64 0.692 0.793 0.477 0.153 1.211 0.384 2.2 0.692 0.973 0.289 1.733 0.605 2.28 0.947s0.929 0.751 1.152 1.229c0.221 0.46 0.333 1.040 0.333 1.74 0 2.457-1.793 3.687-5.377 3.687zM93.051 25.067v-16.487h7.732c1.296 0 2.355 0.248 3.173 0.743 0.813 0.475 1.455 1.166 1.857 1.995l0.012 0.028c0.409 0.853 0.613 1.827 0.613 2.919 0 1.109-0.237 2.091-0.716 2.944-0.463 0.851-1.145 1.533-1.97 1.983l-0.026 0.013c-0.853 0.461-1.869 0.692-3.047 0.692h-4.173v5.171h-3.456zM96.507 17.156h3.456c0.991 0 1.733-0.256 2.227-0.768 0.513-0.529 0.769-1.237 0.769-2.124 0-0.956-0.24-1.681-0.717-2.176-0.477-0.512-1.195-0.768-2.151-0.768h-3.584v5.836zM111.667 25.323c-0.014 0-0.031 0-0.048 0-0.758 0-1.482-0.15-2.141-0.423l0.037 0.014c-0.642-0.285-1.176-0.712-1.579-1.245l-0.007-0.010c-0.392-0.563-0.589-1.263-0.589-2.099 0-1.195 0.419-2.151 1.255-2.867 0.853-0.717 2.107-1.076 3.764-1.076h3.584v-0.333c0-0.751-0.213-1.28-0.64-1.587-0.411-0.307-1.247-0.461-2.509-0.461-1.383 0-2.713 0.213-3.993 0.64v-2.432c0.563-0.221 1.245-0.4 2.048-0.537 0.819-0.153 1.707-0.231 2.661-0.231 1.827 0 3.235 0.376 4.224 1.127 1.008 0.733 1.511 1.92 1.511 3.559v7.705h-2.995l-0.18-1.101c-0.477 0.427-1.067 0.76-1.765 1-0.7 0.237-1.579 0.357-2.637 0.357zM112.613 23.044c0.768 0 1.433-0.128 1.996-0.384s1.007-0.58 1.332-0.973v-1.92h-3.507c-1.349 0-2.024 0.556-2.024 1.665 0 1.075 0.733 1.613 2.201 1.613zM124.064 25.067l-3.2-12.133h3.456l1.843 7.884 2.023-6.324v-1.56h2.637l2.304 7.884 1.792-7.885h3.431l-3.175 12.135h-3.175l-2.329-7.091-2.381 7.091h-3.225z"></path>
</symbol>
</defs>
</svg>
